<?xml version="1.0" standalone="no"?>
<!DOCTYPE svg PUBLIC "-//W3C//DTD SVG 20010904//EN"
 "http://www.w3.org/TR/2001/REC-SVG-20010904/DTD/svg10.dtd">
<svg version="1.0" xmlns="http://www.w3.org/2000/svg"
 width="300.000000pt" height="300.000000pt" viewBox="0 0 300.000000 300.000000"
 preserveAspectRatio="xMidYMid meet">

<g transform="translate(0.000000,300.000000) scale(0.100000,-0.100000)"
fill="#000000" stroke="none">
<path d="M1383 2640 c-58 -12 -184 -66 -229 -98 -52 -37 -142 -129 -172 -177
-35 -53 -95 -180 -110 -230 -24 -80 -29 -174 -16 -267 13 -88 13 -90 -8 -107
-21 -18 -21 -18 -3 -70 29 -80 40 -43 39 132 -1 82 3 143 7 135 5 -7 6 -23 2
-35 -3 -15 -1 -23 7 -23 13 0 11 -36 -11 -271 -11 -112 -11 -118 16 -210 15
-52 36 -128 46 -169 22 -85 37 -121 86 -202 32 -54 34 -62 34 -147 0 -84 -2
-93 -24 -114 -14 -12 -29 -42 -35 -67 -5 -25 -10 -35 -11 -22 -1 12 -6 22 -12
22 -5 0 -8 -4 -5 -8 10 -17 -21 -29 -241 -86 -50 -14 -131 -39 -180 -56 -166
-60 -270 -90 -316 -90 -25 -1 -115 -54 -194 -115 l-52 -40 0 -162 -1 -163
1500 0 1500 0 0 225 0 225 -29 0 c-15 0 -41 4 -57 9 -16 5 -54 14 -84 21 -30
7 -62 16 -70 21 -80 40 -132 61 -154 62 -14 1 -26 6 -26 11 0 4 -11 5 -25 2
-15 -4 -25 -2 -25 4 0 6 -4 8 -10 5 -5 -3 -10 -1 -10 6 0 7 -3 9 -7 6 -3 -4
-11 -3 -17 2 -6 5 -29 14 -51 21 -22 7 -73 28 -114 47 -41 19 -79 32 -86 29
-7 -2 -17 0 -23 6 -6 6 -25 11 -41 10 -17 0 -33 4 -37 9 -3 5 -10 7 -15 4 -5
-4 -9 -1 -9 6 0 7 -3 9 -6 6 -4 -3 -16 -1 -28 5 -20 11 -20 10 -7 -8 8 -10 31
-34 50 -51 21 -19 28 -30 17 -26 -15 5 -17 3 -8 -13 5 -10 12 -42 15 -70 5
-50 4 -52 -43 -105 l-49 -54 25 52 c13 29 30 78 36 108 l11 56 -39 57 c-43 62
-138 136 -166 128 -10 -2 -21 0 -24 5 -3 5 -2 9 3 9 4 0 7 41 5 91 l-3 91 -31
-28 c-24 -23 -29 -25 -23 -9 5 11 9 32 10 47 1 15 8 34 15 43 7 8 10 15 6 15
-4 0 1 14 9 30 9 17 13 36 9 42 -4 6 -3 8 3 5 14 -9 29 11 38 50 4 22 11 30
21 26 12 -4 13 0 5 20 -10 26 -4 67 9 67 5 0 6 8 3 19 -3 10 0 22 6 25 16 10
14 36 -2 30 -8 -3 -20 -21 -27 -40 -12 -31 -16 -33 -26 -19 -8 10 -15 12 -18
6 -4 -6 2 -16 14 -23 23 -15 27 -38 6 -38 -8 0 -18 -10 -22 -22 -6 -21 -7 -21
-20 -3 -8 10 -14 14 -14 8 0 -6 -12 -14 -27 -18 -16 -4 -22 -10 -15 -12 6 -3
12 -10 12 -17 0 -18 -24 -66 -33 -66 -5 0 -5 -4 -2 -10 11 -17 -5 -11 -41 16
-19 15 -51 29 -72 31 -72 8 -167 9 -190 1 -19 -7 -25 -4 -29 12 -3 11 -9 17
-13 15 -5 -3 -5 8 0 25 9 31 -1 46 -22 34 -9 -5 -10 -4 -3 4 17 18 95 32 122
21 30 -11 137 -80 141 -91 6 -14 22 -9 22 6 0 8 -14 25 -31 38 -17 13 -41 33
-55 45 -13 12 -24 18 -24 12 0 -5 -10 -1 -22 11 -12 11 -28 20 -35 20 -9 0
-11 5 -6 13 16 26 11 41 -7 17 -10 -13 -16 -29 -13 -34 4 -5 -5 -6 -21 -2 -14
3 -26 3 -26 -2 0 -10 -48 -14 -54 -4 -2 4 -1 23 3 42 6 29 11 34 41 38 19 2
42 9 50 16 17 15 38 17 98 10 23 -3 42 -10 42 -16 0 -6 -10 -8 -25 -4 -14 4
-25 2 -25 -4 0 -13 50 -13 70 0 11 7 12 12 3 18 -6 4 -13 23 -15 42 -4 42 -30
50 -80 24 -18 -10 -40 -18 -48 -18 -8 -1 -15 -6 -15 -13 0 -6 -4 -15 -9 -20
-5 -4 -6 -3 -3 3 9 15 -18 25 -31 12 -7 -7 -12 -3 -17 11 -3 12 -10 21 -14 21
-4 0 -13 12 -19 26 -7 14 -17 22 -22 19 -6 -3 -9 2 -7 12 4 28 18 45 32 39 7
-2 15 4 18 16 3 11 10 17 15 14 6 -3 13 0 16 6 3 10 9 8 19 -5 13 -15 16 -15
27 -2 7 8 19 15 28 15 8 0 12 3 9 7 -4 3 -3 11 3 18 10 13 2 55 -11 55 -5 0
-9 5 -9 12 0 9 3 9 12 0 16 -16 31 -15 23 1 -4 6 5 -1 19 -18 14 -16 32 -41
39 -55 18 -36 41 -39 33 -3 l-7 27 21 -25 c21 -24 21 -24 10 -1 -11 22 -10 23
9 13 36 -20 44 -11 15 16 -25 24 -27 28 -11 31 15 3 16 6 5 20 -11 14 -10 15
7 8 36 -15 151 -19 173 -7 13 7 22 8 22 2 0 -14 -55 -51 -76 -51 -12 0 -15 -3
-8 -10 8 -8 31 -11 103 -10 13 0 29 -4 35 -9 7 -6 20 -2 35 10 22 18 23 24 17
87 -4 37 -13 88 -20 113 -11 35 -12 49 -3 58 16 16 15 45 -3 53 -11 5 -9 7 7
7 12 1 23 6 25 13 3 9 8 9 19 -1 10 -10 13 -36 12 -100 l-2 -86 14 50 c51 177
-29 439 -181 591 -142 143 -361 226 -511 194z m241 -242 c-5 -7 0 -9 14 -6 12
3 23 1 25 -6 2 -6 11 -11 20 -11 9 0 17 -4 16 -9 0 -5 10 -14 22 -20 24 -12
23 -33 -1 -28 -9 1 -8 -2 4 -9 16 -10 22 -8 34 7 13 17 14 17 9 1 -4 -11 -1
-20 9 -24 13 -5 13 -7 2 -14 -8 -6 -9 -12 -3 -16 14 -11 18 -53 5 -53 -6 0 -9
4 -6 9 7 10 -16 71 -27 71 -4 0 -3 -9 3 -20 8 -15 8 -20 -1 -20 -6 0 -9 -9 -6
-20 4 -16 1 -19 -24 -16 -24 3 -27 1 -19 -14 8 -16 6 -17 -23 -10 -32 7 -33 6
-34 -26 0 -19 4 -31 9 -28 5 3 16 -3 23 -14 9 -12 30 -21 56 -25 58 -8 71 -24
31 -38 -20 -7 -29 -15 -25 -22 4 -7 0 -6 -9 1 -14 11 -27 11 -77 -4 -63 -17
-72 -32 -32 -50 l23 -11 -29 -6 c-26 -5 -32 -13 -47 -61 l-18 -56 -49 0 c-55
0 -71 17 -71 76 0 19 -4 34 -10 34 -5 0 -6 5 -2 12 4 7 3 8 -4 4 -6 -4 -22 3
-34 14 -13 12 -32 29 -43 39 -17 15 -57 32 -87 35 -16 2 -21 18 -8 26 13 8 12
10 -2 10 -10 0 -18 -7 -18 -15 0 -8 -4 -15 -10 -15 -5 0 -10 6 -10 13 0 18 45
41 64 34 9 -4 16 -2 16 3 0 6 7 10 15 10 9 0 15 9 15 22 0 12 3 18 6 15 4 -3
18 2 31 13 20 15 30 17 47 9 19 -9 20 -9 3 4 -14 12 -15 16 -4 26 8 6 16 9 19
6 2 -3 5 1 5 8 5 72 36 125 68 113 9 -3 14 -2 11 3 -3 5 1 14 9 21 8 7 15 9
15 5 0 -4 7 -2 14 5 8 6 30 14 48 17 18 3 35 7 37 9 9 8 12 4 5 -8z m-149 -28
c-3 -5 -11 -10 -16 -10 -6 0 -7 5 -4 10 3 6 11 10 16 10 6 0 7 -4 4 -10z m-35
-30 c0 -5 -5 -10 -11 -10 -5 0 -7 5 -4 10 3 6 8 10 11 10 2 0 4 -4 4 -10z
m-24 -50 c0 -11 -4 -20 -9 -20 -5 0 -6 -7 -3 -16 3 -8 2 -13 -3 -9 -5 3 -11 2
-14 -2 -2 -5 -2 -1 1 7 2 8 5 22 6 30 1 11 11 25 21 30 1 0 1 -9 1 -20z m486
-289 c-3 -9 -1 -12 6 -7 7 4 12 3 12 -3 0 -6 6 -8 14 -5 8 3 23 -5 35 -17 18
-20 19 -24 6 -32 -19 -10 -38 1 -31 19 3 8 0 11 -10 7 -7 -3 -14 -9 -14 -14 0
-4 -7 -6 -15 -3 -9 4 -16 -2 -20 -18 -5 -21 -10 -23 -63 -20 -31 2 -61 8 -66
13 -6 5 -20 9 -32 9 -13 0 -26 5 -30 12 -5 8 -2 9 9 5 10 -3 17 -2 17 3 0 6 6
10 13 10 18 0 49 35 40 44 -4 4 0 4 10 0 10 -3 17 -1 17 5 0 7 19 10 54 9 41
-2 52 -6 48 -17z m102 10 c3 -4 3 -11 0 -14 -8 -8 -34 3 -34 14 0 11 27 12 34
0z m-790 -77 c34 -13 15 -26 -26 -18 -24 4 -48 7 -55 7 -7 0 -10 4 -7 9 6 9
65 11 88 2z m-13 -41 c16 -10 29 -22 29 -27 0 -6 12 -21 28 -34 l27 -24 -32
21 c-20 13 -47 21 -75 21 -25 0 -47 3 -51 6 -8 8 17 34 35 35 7 1 0 5 -17 9
l-30 8 28 1 c16 0 42 -7 58 -16z m644 -23 c4 -7 -3 -8 -22 -4 -38 9 -42 14
-10 14 14 0 29 -5 32 -10z m-560 -20 c27 -30 12 -34 -15 -5 -13 14 -19 25 -13
25 5 0 18 -9 28 -20z m-125 -30 c0 -5 -4 -10 -10 -10 -5 0 -10 5 -10 10 0 6 5
10 10 10 6 0 10 -4 10 -10z m82 -7 c16 -5 35 -34 20 -31 -4 1 -14 -1 -22 -5
-8 -3 -28 -10 -45 -16 -29 -10 -28 -10 10 -6 30 4 35 3 20 -4 -26 -12 -65 -14
-65 -2 0 5 7 14 15 21 8 7 15 24 15 37 0 20 4 24 18 18 9 -4 25 -9 34 -12z
m478 -1 c0 -10 5 -23 11 -29 8 -8 0 -10 -32 -6 -60 8 -69 20 -28 37 44 20 49
19 49 -2z m155 6 c14 -6 25 -14 25 -18 0 -7 -65 -40 -79 -40 -7 0 19 69 26 70
1 0 14 -5 28 -12z m-787 -50 c22 -26 1 -22 -33 7 -16 14 -22 22 -12 19 10 -4
17 -1 18 7 0 10 2 10 6 -1 3 -8 12 -23 21 -32z m415 16 c3 -4 -1 -13 -9 -21
-15 -16 -11 -33 9 -33 7 0 6 4 -3 10 -13 8 -12 10 3 10 29 0 14 -25 -18 -28
-24 -3 -27 -1 -22 17 3 12 -1 22 -10 25 -8 3 -11 10 -8 16 7 11 48 14 58 4z
m289 -36 c-9 -9 -15 -9 -24 1 -9 10 -9 12 -1 7 6 -3 15 -1 18 5 4 5 10 8 13 4
3 -3 0 -11 -6 -17z m-609 -281 c3 -8 1 -20 -4 -28 -6 -10 -9 -7 -9 14 0 29 5
35 13 14z m158 -45 c-36 -4 -61 3 -61 16 0 5 21 4 47 -2 45 -11 46 -11 14 -14z
m79 -216 c0 -3 -4 -8 -10 -11 -5 -3 -10 -1 -10 4 0 6 5 11 10 11 6 0 10 -2 10
-4z m440 -26 c0 -5 -5 -10 -11 -10 -5 0 -7 5 -4 10 3 6 8 10 11 10 2 0 4 -4 4
-10z m-155 -70 c-9 -10 -22 -18 -27 -17 -6 1 -13 -4 -15 -10 -9 -24 35 -13 56
14 12 14 25 23 29 19 8 -8 -62 -76 -78 -76 -5 0 -16 15 -23 33 l-14 32 -1 -33
c0 -18 4 -30 9 -27 5 4 9 2 9 -3 0 -12 -25 -33 -32 -27 -2 3 -26 -1 -53 -9
-31 -10 -54 -12 -65 -6 -17 9 -51 7 -69 -5 -6 -3 -30 14 -56 37 l-45 42 22 14
c19 11 19 12 3 7 -16 -5 -17 -4 -8 6 10 10 15 9 27 0 12 -10 23 -10 51 -1 20
7 44 10 54 7 10 -2 25 0 34 5 13 7 15 5 10 -8 -5 -14 -2 -15 18 -8 33 11 91
11 107 0 9 -6 11 -4 6 8 -7 17 11 23 21 6 4 -6 12 -4 21 5 23 22 30 18 9 -5z
m-93 -175 c45 -16 46 -17 38 -46 -5 -16 -6 -29 -4 -29 3 0 3 -4 -1 -10 -4 -6
-15 -6 -31 0 -14 6 -23 6 -20 1 3 -5 -11 -17 -31 -26 -35 -17 -38 -17 -69 0
-19 10 -31 22 -28 27 3 5 -2 15 -11 22 -14 10 -16 21 -11 51 l7 38 57 -6 c31
-4 78 -14 104 -22z m154 -212 c-3 -4 -1 -12 6 -20 9 -11 8 -13 -2 -11 -7 2
-15 -3 -17 -9 -3 -7 1 -13 8 -13 7 0 2 -11 -11 -25 -13 -14 -20 -25 -15 -25 4
0 0 -9 -10 -20 -10 -11 -14 -20 -9 -20 5 0 2 -5 -6 -10 -8 -5 -10 -10 -4 -10
7 0 15 -7 18 -16 3 -8 2 -12 -4 -9 -14 9 -28 -26 -24 -62 1 -18 -2 -33 -8 -33
-6 0 -7 -7 -4 -16 4 -10 2 -13 -6 -8 -8 5 -9 2 -5 -9 3 -10 2 -17 -3 -17 -5 0
-10 10 -12 23 -2 13 -10 22 -20 21 -9 -1 -14 4 -12 10 4 11 -19 16 -78 19 -19
1 -26 27 -7 27 5 0 7 5 4 10 -3 6 3 10 14 10 12 0 21 7 21 16 0 8 5 12 10 9 6
-4 10 6 10 22 -1 24 -2 25 -11 11 -5 -10 -15 -18 -20 -18 -6 0 -7 5 -4 10 3 6
-2 10 -12 11 -11 0 -2 8 21 19 22 10 43 25 48 35 8 13 12 14 26 3 13 -11 15
-11 9 4 -4 12 -2 15 9 11 9 -3 21 3 30 16 8 11 21 21 27 21 9 0 9 -2 1 -8 -9
-5 -8 -10 2 -19 8 -8 15 -9 19 -3 3 6 2 10 -2 10 -5 0 -9 9 -10 20 -1 11 3 19
9 17 6 -1 12 6 13 16 2 10 -3 17 -11 17 -9 0 -12 -4 -9 -10 3 -5 -2 -10 -12
-10 -15 0 -14 4 7 24 21 19 26 21 33 9 5 -8 6 -17 3 -20z m44 -9 c0 -8 -19
-13 -24 -6 -3 5 1 9 9 9 8 0 15 -2 15 -3z m-808 -91 c-5 -83 -9 -90 -11 -20 0
37 2 67 7 67 4 0 6 -21 4 -47z m1183 7 c3 -5 1 -10 -4 -10 -6 0 -11 5 -11 10
0 6 2 10 4 10 3 0 8 -4 11 -10z m-580 -10 c-3 -5 -12 -10 -18 -10 -7 0 -6 4 3
10 19 12 23 12 15 0z m253 -1 c-2 -3 3 -14 11 -23 8 -10 15 -32 16 -49 0 -18
3 -36 6 -42 3 -5 6 -27 8 -47 3 -43 -23 -63 -79 -60 -26 2 -31 0 -20 -8 12 -8
10 -10 -9 -10 -17 0 -22 4 -17 16 3 8 2 13 -3 10 -5 -3 -7 13 -5 37 6 64 15
107 24 107 5 0 6 10 2 22 -3 14 -2 19 6 14 7 -4 12 -2 12 4 0 7 7 9 16 6 15
-6 15 -4 3 11 -9 11 -10 14 -1 9 7 -4 12 -2 12 4 0 7 5 10 11 8 6 -2 9 -6 7
-9z m717 -89 c8 -13 -5 -13 -25 0 -13 8 -13 10 2 10 9 0 20 -4 23 -10z m-1076
-76 c-10 -13 -10 -17 1 -24 19 -12 21 -90 3 -90 -7 0 -13 -4 -13 -9 0 -31 -95
-21 -105 10 -4 11 -11 17 -16 14 -16 -10 -10 16 9 40 14 18 27 22 60 21 37 -2
42 0 42 20 0 19 9 29 29 33 2 1 -2 -6 -10 -15z m39 -15 c-2 -6 -8 -10 -13 -10
-5 0 -11 4 -13 10 -2 6 4 11 13 11 9 0 15 -5 13 -11z m132 -69 c0 -5 -5 -10
-11 -10 -5 0 -7 5 -4 10 3 6 8 10 11 10 2 0 4 -4 4 -10z"/>
<path d="M1686 2362 c-7 -12 7 -28 32 -34 30 -8 28 0 -4 12 -14 6 -22 14 -19
20 3 5 4 10 1 10 -3 0 -7 -4 -10 -8z"/>
<path d="M1690 2260 c0 -5 5 -10 11 -10 5 0 7 5 4 10 -3 6 -8 10 -11 10 -2 0
-4 -4 -4 -10z"/>
<path d="M2060 1759 c0 -25 33 -22 38 4 2 12 -3 17 -17 17 -15 0 -21 -6 -21
-21z"/>
<path d="M2075 1710 c-4 -12 -5 -24 -2 -27 3 -2 8 5 12 17 4 12 5 24 2 27 -3
2 -8 -5 -12 -17z"/>
<path d="M2004 1648 c-11 -17 7 -28 22 -14 8 8 14 16 14 19 0 7 -31 4 -36 -5z"/>
<path d="M1600 1621 c0 -6 -7 -8 -15 -5 -22 9 -18 -10 5 -31 23 -21 90 -47 90
-35 0 4 -18 23 -40 44 -22 20 -40 32 -40 27z"/>
<path d="M2004 1539 c-3 -6 -2 -15 3 -20 5 -5 9 -1 9 11 0 23 -2 24 -12 9z"/>
<path d="M1990 1475 c0 -12 7 -26 16 -29 12 -4 15 -2 11 9 -4 8 -2 17 3 20 16
10 11 21 -10 22 -15 1 -20 -4 -20 -22z"/>
<path d="M1640 1346 c0 -3 9 -10 20 -16 11 -6 20 -8 20 -6 0 3 -9 10 -20 16
-11 6 -20 8 -20 6z"/>
<path d="M1040 820 c0 -5 5 -10 11 -10 5 0 7 5 4 10 -3 6 -8 10 -11 10 -2 0
-4 -4 -4 -10z"/>
</g>
</svg>
